<?xml version="1.0" encoding="UTF-8"?>
<svg id="Ebene_1" xmlns="http://www.w3.org/2000/svg" version="1.1" viewBox="0 0 1024 1024">
  <!-- Generator: Adobe Illustrator 29.7.1, SVG Export Plug-In . SVG Version: 2.1.1 Build 8)  -->
  <defs>
    <style>
      .st0 {
        fill: #0c0a0a;
      }

      .st1 {
        fill: #a5a6a5;
      }

      .st2 {
        fill: #f1f1f1;
      }

      .st3 {
        fill: #3c3c3b;
      }

      .st4 {
        fill: #a5a09e;
      }

      .st5 {
        fill: #2a2828;
      }

      .st6 {
        fill: #8f8e89;
      }

      .st7 {
        fill: #616261;
      }

      .st8 {
        fill: #a09e99;
      }

      .st9 {
        fill: #575957;
      }

      .st10 {
        fill: #726f6b;
      }

      .st11 {
        fill: #f0f0ef;
      }

      .st12 {
        fill: #090809;
      }

      .st13 {
        fill: #9c9c99;
      }

      .st14 {
        fill: #fcfcf9;
      }

      .st15 {
        fill: #f8f8f7;
      }

      .st16 {
        fill: #e0dfe0;
      }

      .st17 {
        fill: #d8d7d3;
      }

      .st18 {
        fill: #9d9a96;
      }

      .st19 {
        fill: #757675;
      }

      .st20 {
        fill: #0b0909;
      }

      .st21 {
        fill: #eaeaea;
      }

      .st22 {
        fill: #a9a9a3;
      }

      .st23 {
        fill: #474747;
      }

      .st24 {
        fill: #0f1011;
      }

      .st25 {
        fill: #5f5f5f;
      }

      .st26 {
        fill: #9c9893;
      }

      .st27 {
        fill: #666768;
      }

      .st28 {
        fill: #434242;
      }

      .st29 {
        fill: #50514f;
      }

      .st30 {
        fill: #727270;
      }

      .st31 {
        fill: #fdf5f0;
      }

      .st32 {
        fill: #72726f;
      }

      .st33 {
        fill: #e4e4e4;
      }

      .st34 {
        fill: #f6f6f6;
      }

      .st35 {
        fill: #8f8e8b;
      }

      .st36 {
        fill: #f4f4f4;
      }

      .st37 {
        fill: #999795;
      }

      .st38 {
        fill: #23211f;
      }

      .st39 {
        fill: #9a9794;
      }

      .st40 {
        fill: #5f5c58;
      }

      .st41 {
        fill: #ada8a4;
      }

      .st42 {
        fill: #e1e1e0;
      }

      .st43 {
        fill: #969696;
      }

      .st44 {
        fill: #1d1c1a;
      }

      .st45 {
        fill: #191716;
      }

      .st46 {
        fill: #ccc7c1;
      }

      .st47 {
        fill: #949393;
      }

      .st48 {
        fill: #73716b;
      }

      .st49 {
        fill: #bfc0c0;
      }

      .st50 {
        fill: #5a5a5a;
      }

      .st51 {
        fill: #e5e5e4;
      }

      .st52 {
        fill: #5d5d5c;
      }

      .st53 {
        fill: #aaa;
      }

      .st54 {
        fill: #3e3e3b;
      }

      .st55 {
        fill: #1c1a18;
      }

      .st56 {
        fill: #4d4d4c;
      }

      .st57 {
        fill: #51504d;
      }

      .st58 {
        fill: #0a0909;
      }

      .st59 {
        fill: #b1b1b1;
      }

      .st60 {
        fill: #0c0b0c;
      }

      .st61 {
        fill: #696969;
      }

      .st62 {
        fill: #5c5b58;
      }

      .st63 {
        fill: #dddedc;
      }

      .st64 {
        fill: #86847f;
      }

      .st65 {
        fill: #777574;
      }

      .st66 {
        fill: #6e6e6c;
      }

      .st67 {
        fill: #2b2927;
      }

      .st68 {
        fill: #1d1c1b;
      }

      .st69 {
        fill: #a7a8a7;
      }

      .st70 {
        fill: #484744;
      }

      .st71 {
        fill: #0c0b0b;
      }

      .st72 {
        fill: #7b7a78;
      }

      .st73 {
        fill: #e0e0e1;
      }

      .st74 {
        fill: #fdf5ef;
      }

      .st75 {
        fill: #c7c7c8;
      }

      .st76 {
        fill: #f5f6f5;
      }

      .st77 {
        fill: #40403d;
      }

      .st78 {
        fill: #282727;
      }

      .st79 {
        fill: #b3aea8;
      }

      .st80 {
        fill: #94928f;
      }

      .st81 {
        fill: #e7e7e7;
      }

      .st82 {
        fill: #595958;
      }

      .st83 {
        fill: #c7c8c8;
      }

      .st84 {
        fill: #141311;
      }

      .st85 {
        fill: #3b3b39;
      }

      .st86 {
        fill: #f7f7f6;
      }

      .st87 {
        fill: #a3a09a;
      }

      .st88 {
        fill: #8f9191;
      }

      .st89 {
        fill: #a09e9a;
      }

      .st90 {
        fill: #7a7d7c;
      }

      .st91 {
        fill: #626363;
      }

      .st92 {
        fill: #fbf4f0;
      }

      .st93 {
        fill: #f5f4f4;
      }

      .st94 {
        fill: #d6d6d7;
      }

      .st95 {
        fill: #f7f5f3;
      }

      .st96 {
        fill: #2d2b27;
      }

      .st97 {
        fill: #777470;
      }

      .st98 {
        fill: #1a1919;
      }

      .st99 {
        fill: #f8f4f2;
      }

      .st100 {
        fill: #8a8b8a;
      }

      .st101 {
        fill: #81807e;
      }

      .st102 {
        fill: #474847;
      }

      .st103 {
        fill: #989997;
      }

      .st104 {
        fill: #615f5b;
      }

      .st105 {
        fill: #aeaba6;
      }

      .st106 {
        fill: #e2e3e2;
      }

      .st107 {
        fill: #faf9f7;
      }

      .st108 {
        fill: #ebebea;
      }

      .st109 {
        fill: #4b4c4b;
      }

      .st110 {
        fill: #f8f8f8;
      }

      .st111 {
        fill: #3a3938;
      }

      .st112 {
        fill: #c7c5c4;
      }

      .st113 {
        fill: #2d2c2b;
      }

      .st114 {
        fill: #6b6b6a;
      }

      .st115 {
        fill: #5f5c5a;
      }

      .st116 {
        fill: #1f1e1d;
      }

      .st117 {
        fill: #656768;
      }

      .st118 {
        fill: #7a7c7b;
      }

      .st119 {
        fill: #3c3b3a;
      }

      .st120 {
        fill: #f7f7f7;
      }

      .st121 {
        fill: #9c9e9a;
      }

      .st122 {
        fill: #fdf7f1;
      }

      .st123 {
        fill: #8e8e8b;
      }

      .st124 {
        fill: #f5f5f4;
      }

      .st125 {
        fill: #d2d2d3;
      }

      .st126 {
        fill: #4b4b49;
      }

      .st127 {
        fill: #a1a1a0;
      }

      .st128 {
        fill: #2a2928;
      }

      .st129 {
        fill: #f2f2f2;
      }

      .st130 {
        fill: #10100f;
      }

      .st131 {
        fill: #b7b5b0;
      }

      .st132 {
        fill: #f5f5f5;
      }

      .st133 {
        fill: #64615d;
      }

      .st134 {
        fill: #595756;
      }

      .st135 {
        fill: #0b0a0a;
      }

      .st136 {
        fill: #e5e4e3;
      }

      .st137 {
        fill: #5d5e5c;
      }

      .st138 {
        fill: #141211;
      }

      .st139 {
        fill: #6c6965;
      }

      .st140 {
        fill: #93918d;
      }

      .st141 {
        fill: #f1f0ef;
      }

      .st142 {
        fill: #7c7b77;
      }

      .st143 {
        fill: #f0f1f1;
      }

      .st144 {
        fill: #2b2a29;
      }

      .st145 {
        fill: #66655e;
      }

      .st146 {
        fill: #454445;
      }

      .st147 {
        fill: #6e6f6d;
      }

      .st148 {
        fill: #6a6a6a;
      }

      .st149 {
        fill: #cacbca;
      }

      .st150 {
        fill: #403d3a;
      }

      .st151 {
        fill: #efefee;
      }

      .st152 {
        fill: #23211e;
      }

      .st153 {
        fill: #dcdbdb;
      }

      .st154 {
        fill: #fbf5f2;
      }

      .st155 {
        fill: #444140;
      }

      .st156 {
        fill: #535251;
      }

      .st157 {
        fill: #f8f7f7;
      }

      .st158 {
        fill: #707170;
      }

      .st159 {
        fill: #eee;
      }

      .st160 {
        fill: #3f3e3b;
      }

      .st161 {
        fill: #262425;
      }

      .st162 {
        fill: #83807c;
      }

      .st163 {
        fill: #72706c;
      }

      .st164 {
        fill: #d8d9d8;
      }

      .st165 {
        fill: #92908d;
      }

      .st166 {
        fill: #444646;
      }

      .st167 {
        fill: #928f8b;
      }

      .st168 {
        fill: #0e0e0f;
      }

      .st169 {
        fill: #3f3e3d;
      }

      .st170 {
        fill: #a09d97;
      }
    </style>
  </defs>
  <rect class="st74" width="1024" height="1024"/>
  <path class="st168" d="M545,415c-7.43-11.11-14.26-46.68-15.04-60.46-1.27-22.52,5.78-54.44,19.22-72.86,11.17-15.32,40.14-31.01,41.86-51.13,1.12-13.11-2.31-23.85-15.06-29.03-22.61-9.17-41.76,3.9-64.49,5.47-14.68,1.01-34.76-1.12-48.75,1.25-3.3.56-6.08,2.89-9.29,3.71-23.65,6.03-39.7,14.64-61.77,24.23-15.66,6.8-31.64,12.92-47.38,19.52-5.55,5.37-6.35,13.85-10.29,20.29,1.64,1.23,20.04-6.32,23.97-2.95-1.84,9.07-9.37,18.08-16.45,23.98-3.43,2.86-17.35,10.63-18.61,12.39-1.88,2.64-1.65,11.96-2.92,15.58h186v64c0,.64-10.87,4.49-12.06,3.59-.76-.58-3.54-15.67-4.45-18.58-13.15-42.37-65.34-29.89-99.5-32v117h47.5c2.37,0,10.86-3.32,13.19-4.81,10.14-6.47,12.93-23,13.3-34.2h11.01v93.01c0,.56-9.53,1.3-10.99,2-.43-12.27-3.96-31.49-16.62-36.88-1.67-.71-9.63-3.11-10.89-3.11h-46.5v110.5c0,2.07,2.29,9.4,3.45,11.55,5.86,10.93,17.9,9.69,28.54,10.96v9.99s-105.99,0-105.99,0v-10.01c10.65-.61,23.72-.81,28.28-12.21,2.95-7.36,3.42-20.05,3.76-28.24,2.83-67.64-2.25-137.24,0-205.09-1.4-20.55-7.63-28.02-28.97-28.39l-8.06,31.93c3.42-.72,5.02-2.07,8.08.43,1.59,1.29,6.83,9.93,6.65,11.93-.52,5.65-16.84,23.12-21.72,27.16-10.16,8.42-24.85,12.95-32.03,23.97-1.92,2.94-2.26,6.98-3.81,10.19-10.01,20.81-25.45,44.24-45.86,56.14-13.45,7.84-24.41,5.83-14.32-10.81-9.11,2.22-26.07,20.26-30.73,3.22-3.36-12.28-.87-35.55.87-48.59,8.59-64.56,43.87-122.54,90.85-166.15l-43.48,14.05c-2.86-.38-3.12-.74-2-3.51,5.41-13.32,60.97-47.5,75.56-56.45,23.13-14.19,47.23-26.66,70.59-40.41,16.82-9.9,42.55-23.3,57.27-34.73,5.22-4.05,13.36-15.89,18.54-21.46,26.83-28.87,50.9-53.83,93.03-56.97,35.23-2.63,75.42,12.6,106.16,28.81,49.01,25.85,94.55,78.67,156.33,57.18-11.43,9.65-29.19,10.04-43.49,8.98-15.1-1.12-30.78-7.12-44.18-13.82l-62.33-37.16c29.92,30.07,57.7,66.48,99.99,79.5l17.01,3.49h-19.5c-10.31,0-28.62-9.92-37.42-15.58-16.85-10.85-31.45-24.87-46.07-38.42,4.02,10.46,9.35,20.32,12.27,31.22,10.84,40.45.23,77.19-24.87,109.7-12.82,16.6-34.4,32.53-30.19,56.35,2.27,12.85,17.44,11.75,26.1,5.56,14.03-10.04,14.27-18.11,34.46-23.54,71.47-19.22,123.49,40.86,148.68,99.75,35.78,83.64,29.58,177.44,31.49,266.51.67,31.08,6.47,74.99-.24,104.68-.93,4.1-2.57,12.89-7.74,10.3-1.57-.79-11.52-16.98-13.16-19.85-4.58-7.99-9.63-17.98-13.69-26.31-2.58-5.31-3.65-12.33-8.13-16.36,2.1,7.81,16.6,54.19,10.98,58-5.34-.46-9.92-8.31-12.81-12.67-20.93-31.6-38.21-78.08-65.36-104.64-.87-.86-.83-2.2-2.81-1.68,1.2,11.82-3.41,25-3.06,36.52.4,12.93,8.88,24.6,1.97,37.89-20.42,44.06-38.51,89.22-60.43,132.57-.58,1.16-.94,2.76-2.48,3.01,6.2-20.54,11.46-41.4,17.49-62s16.77-46.33,19.37-67.63c2.51-20.58-4.02-24.2-9.15-41.59-1.59-5.38-1.55-8.32-1.72-13.78-1.64-3.08,3.04-4.82,2-1,3.81-1.9,7.81-3.57,12-5l.17-1.31c7.4-1.06,12.34-3.95,14.83-8.69.34-.73.76-1.46,1-2,1.3-4.02,1.74-6.93,1-11,.02-.33-.02-.67,0-1,.88-14.69,1.68-29.24,2.41-43.65,3.63.09,5.45-.9,5.45-2.98l2.13-.38c6.18,8.89,12.37,18.16,20.99,25l-23.98-49.52,1.99-.99c.11-2.24-5.01-6.71-2.02-8.48,6.49,13.04,12.92,26.54,22,37.99-5.8-16.68-7.58-38.64-15.99-54,.28-1.66,2.28-2.66,6-3,2.95,3.5,5.47,7.55,8.49,11.01,3.71,4.26,9.34,7.75,11.53,12.98l.91-2.4c-9.72-26.23-22.03-51.65-27.84-79.19l1.91.6c-.85-6.9-2.35-14.18-3.99-21-.09-1.02-.07-1.38,1-1l4.5,18,12.49,38-5.26-47.27c-3.9-5.69-5.17-11.15-7.73-17.73-1.9-1.44-2.97-4.49-3-7-2.85-.99-1.96-2.85,1-2,1.78,1.65,1.78-.02,0-5-5.58-10.17-10.3-20.89-14.99-31.52-.24-2.9,1.24-.84,1.84.16,3.38,5.6,6.43,13.3,9.14,19.36,1.34.7,1.68.37,1-1-.2-.47.2-1.52,0-2-.87-1.51-.57-1.95,1-1,.44.91,1.28,6.58,3.02,5.49-2.71-16.98-17.17-29.92-17.01-47.48l5.5,3.99c.38-4.28-3.25-9.48-5.69-13.31-3.43-5.37-6.05-8.05-10.81-11.69-2.52,1.43-5.52,1.1-9-1-1.18-.77-1.66-.99-3-2l-1.41.48c-4.15-2.51-8.65-4.1-13.59-4.48-11.9-3.31-25.06-4.95-36.99-9.01-.22-1.83,2.13-.86,3.22-.72,8.1,1.04,16.03,4.11,24.29,4.72,8.27.61,17.15-.41,25.49,0-6.91-6.64-19.77-6.03-29-6.99-1.24-1.25-.7-1.3,1-1l8.99-.99c-17.96-6.26-37.25-2.43-55.56-6.96l.56-1.05c4.31-1.49,9.1-1.6,14.39-.32,3.39.02,12.72-.1,8.61-2.68-.87-.01-1.26-.05-1-1,.58-2.69-7.14.44-8.6,1.61-1.94.52-3.14.56-3.9-1.61-1.53,3.56-12.27,2.57-14.5,0,3.3,1.54,1.34,2.5-1.75,2.58l.75.42c.31.16,4.99,3.37,1.54,2.97l-12.53-5.47c4.34,5.2,10.4,8.09,16,11.5,1.33,1.41.77,1.92-1,1-10.76-6.11-15.71-10.33-23.46-20.04-.91-1.14-1.44-3.77-1.62-3.89-.32-.22-2.12,1.95-3.82-.65-1.84-2.8-6.68-24.7-7.09-28.94-.1-1.07-.71-3.74.98-3.48l5,13.99c-.69-3.65-.69-7.33-.99-11-2.02-6.84,1.62-9.55,2-1-.1,4.12-.17,8.39,0,12.51.05,1.21-.76,3.72.99,3.49-1.26-13.14,2.2-23.88,6.01-35.99,2.57-1.12,3.03.21,1,2-.21.28-1.55,5.71-1.78,6.74s-1,3.51.76,3.26c2.11-10.29,10.38-15.84,15.01-24.99l3-1c1.97-1.51,3.72-5.7,4.5-8,.92-2.73,5.5-17.88,5.5-19.5v-20c0-.57-2.65-4.3-.01-4.49,3.5,13.65,1.93,25.73-1.98,38.99l5.25-13.23c4.79-13.18,2.53-26.7-1.26-39.76-.14-1.09-.11-1.43,1-1,3.28,10.33,5.95,19.39,4.98,30.48-.43,4.87-2.89,9.6-2.48,14.53,3.6-10.93,8.23-24.76,7.37-36.39-.2-2.75-1.51-5.87-1.87-8.62-.58-1.64-.58-2.97,0-4-1.19-6.32-2.62-13.04-5-19-.69-1.64-.6-1.93,1-1,4.1,9.42,6.28,20.6,9.01,30.49.38,1.37-.07,3.12,1.99,3.51v-30.5c0-19.47-13.76-33.16-26-45.5-1.33-1.41-.77-1.92,1-1,7.75,7.39,16.82,13.49,21.01,23.99,1.92.15.89-1.99.44-2.95-3.76-8.14-11.48-18.85-17.91-25.09-4.23-4.1-10.07-7.61-14.56-11.44-7.42-6.34-4.89-8.8-16.61-10.39-3.79-.51-8.44,1.12-11.37-1.63l14.99.49-11.99-3.98c4.86-.63,9.32,1.69,13.95,2.55,1.03.19,3.27,1.32,3.04-.54-11.03-3.75-26.32-7.67-37.99-7.01-3.36-.55-6.96-.18-10.79,1.11l-1.21-1.11c-7.88,1.74-16.04,3.77-22.99,8-1.82-1.82,6.14-5.13,7-5.49,4.15-1.7,9.51-2.96,13.98-3.52-1.37-2.43-7.06-.26-9.2.3-11.35,2.96-14.62,9.53-22.31,12.7-.46.19-1.64.26-1.48-.48.89-.66,1.33-1.69,1.99-2.5q3.39-2.56,0,0c-1.03.4-4.82,2.2-4.99,2-1.73-2.05,7.52-4.8,7.99-7.99-3.64-1.21-14.28,8.48-14.98,7.98-.07-.05.21-1.25-.38-1.63-.76-.48-2.1-.19-2.41-.53-.58-.62.02-2.6-.75-3.82-.82-1.3-3.47-.22-1.47-2.99l-5.01.98,1.99-3.99c-2.6,1.1-2.51,1.82-3.49-1-1.54,2.54-2.65,4.1-5.99,4.01l2.48-2.52c-6.02-1.21-11.72,3.19-15.5,7.5l-.98-2.98c-11.07,6.32-23.12,11.35-33.03,19.98l8.43,2.54c2.89-1.86,5.62-.7,8.48-1.55,2.04-.61,4.08-2.71,5.12-3,.58-.16.21,2.96,1.97,2,.57-.19,3.71-4.82,4.52-5.99-.24,1.14-1.77,3.25-.5,4,2.05-1.36,2.49-4.42,3.5-6,2-1.89,4-3.55,6-5,11.29-13.4,31.17.84,23.51,18.01-3.44,7.71-11.07,6.96-13.63,10.45-1.03,1.4.4,2.95.06,3.41-1.41,1.91-20.91,10.8-25.97,16.6-4.55,5.21-8.17,13.6-13.25,18.83-.6.66.14,3.59.29,3.71.74.57,15.37-2.78,18.5-2.99,10.27-.7,20.33.14,30.87-1.13,20.52-2.48,53.19-14.44,71.82-9.58,9.98,2.61,14.17,7.69,19.8,15.7.85,1.52.57,1.95-1,1-5.8-10.79-16.8-16.25-29-15.99l14.91,7.58c7.22,5.48,14.63,16.64,15.13,25.89.06,1.09.54,2.79-1.03,2.52l-1.97-7.53-3.03-6.46c-.38,6.81,1.57,13.11.99,19.99-.28.87-.62.86-1,0,.19-2.29.14-5.1-.12-7.38-.12-1.05-.39-4.69-1.87-4.61.09,12.73-5.99,25.57-11.02,36.99l-1.48-1.99c-3.31,2.84-5.3,6.53-8.49,9.51-8.32,7.75-21.56,15.95-28.52,24.48-11.88,14.56-19.14,45-19.49,63.51-.02.98.44,5.43,1.99,5.5-.27-5.72.23-11.43,1.51-17.01.25-1.11,0-3.23,1.49-2.98-.28,11.45-1.77,22.99-.98,34.48.86,12.49,5.05,24.47,7.99,36.51,3.01.16,2.55,2.03-.29,2.98,1.12,2.54,1.56,5.35-1.71,5.02Z"/>
  <path class="st168" d="M721.86,482.86c-.46.73-9.27,2.5-10.85,4.14-4.4-35.64-24.2-65.95-62.53-68.98-107.82-8.52-126.01,114.82-102.98,194.98,14.39,50.08,59.6,85.71,113.13,73.13,15.2-3.57,21.87-8.07,23.36-24.64,1.26-14.09,1.78-63.33-1.7-75.26-3.75-12.83-12.81-15.23-24.9-17.1-1.52-.24-6.16.11-6.39-.12-.32-.32-.19-7.97.47-9.07l100.54.06c1.13,11.47-1.48,7.43-8.56,9.95-8.17,2.91-12.25,7.11-14.33,15.67-1.18,4.87-1.88,12.73-2.15,17.85-1.44,27.02,1.27,55.26-.1,82.4-50.89,18.83-110.06,28.38-160.26,2.21l-14.16,21.93c13.01,13.21,30.25,30.21,50.56,23-.3,4.84,1.48,10.98-4.55,11.91-11.85,1.82-34.27,3.57-45.44.6s-14.67-11.49-23.35-17.42c-34.73,31.69-112.4,32.6-130.42-17.81-13.36-37.36,9.63-70.66,43.77-84.29-3.62-8.23-9.71-14.93-13.18-23.3-19.08-46.03,23.19-79.01,66.17-63.68,3.7-48.01,26.85-93.83,69.09-118.42,39.84-23.2,88.54-22.52,132.14-11.3,4.11,1.06,25.68,6.59,26.62,9.38l.02,64.2Z"/>
  <path class="st24" d="M578,462l7.99,14c-.32-6.58-3.71-13.94-3.04-20.52.15-1.49.24-3.1,2.04-3.47,1.07,9.39,4.68,18.24,7.25,27.26l10.75,22.73c-1.89-12.88-6.75-26-8.74-38.75-.17-1.07-1.06-3.48.74-3.24,4.01,21.26,11.62,41.88,23.52,59.99l-10.06-44.95.54-3.04c4.74,13.79,9.06,27.78,14,41.51,3.7,10.29,11.35,24.22,13.02,34.48-1.59,5.1-3.25,10.1-5,15-9.7-8.52-23.19-33.11-30.42-45.08-7.94-13.16-21.85-34.07-26.58-47.92,0-2.88,1.26-7.68,4-8Z"/>
  <path class="st135" d="M231.5,922c14.95,2.48,14.46,24.11,1.51,29.02v1.46c6.8,5.54,9.85,15.5,15.47,21.55,3.08,3.31,8.73,4.51,8.52,8.97-8.86.54-14.75.21-20.43-7.06-6.78-8.68-7.71-24.76-22.57-21.93v24c0,.45,8,.84,9.01,1v3h-27.01c.87-5.65,8.27-.98,9.06-7.44,1.07-8.71.91-33.15-.17-41.94-.76-6.2-2.32-8.06-8.89-7.62v-3c10.73,1.26,25.28-1.7,35.51,0Z"/>
  <path class="st135" d="M836,922c.4,2.17,2.89,13.12,1.99,14-3,2.96-6.98-10-9.49-10h-18.5v23h14.5c3.26,0,4.14-5.37,3.5-8.01h3v16.51c0,.72,1.76,2.85.99,4.5-4.25.89-2.46-1.56-4.12-4.35-3.82-6.44-11.15-2.16-17.35-4.65-2.28,1.36-.52,2.12-.52,2.5v20c0,3.55,18.96,3,22.05,2.05,5.59-1.71,5.84-8.29,7.93-11.88.61-1.05,2.73-.94,3.01-.67,1.23,1.19-3.84,14.14-2.99,17h-47v-3c3.21.22,6.27.22,6.97-3.53-1.3-14.77,1.81-32.64.1-47.01-.32-2.72-6.38-3.73-9.08-3.46v-3h45.01Z"/>
  <path class="st58" d="M596,938c-4.19-.79-3.46-6.47-6.6-9.9-9.5-10.4-26.47.62-19.11,9.62,2.61,3.19,15.87,7.3,20.4,10.09,16.63,10.23,8.7,32.44-8.45,34.93-4.12.6-24.24.61-24.24-5.24v-14.5c1.02.18,3.52-.32,3.94.06,1.11,1.01.27,11.71,9.51,14.99,14.44,5.11,26.26-10.52,13.88-18.87-10.44-7.05-32.39-9.4-24.06-29.4,5.89-14.14,34.73-9.79,34.73-6.27v14.5Z"/>
  <path class="st12" d="M537,922c-.46,2.41,3.07,12.95,1.99,14-2.46,2.41-5.13-5.42-6.56-6.94-.76-.8-3.15-3.06-3.94-3.06h-18.5v23h16.5c2.14,0,3.07-6.1,2.5-8.01h3v21.01c-3.08.36-3.22-4.79-5.31-6.69-3.1-2.82-16.69-3.44-16.69-.81v21c0,.33,1.32,1.52,1,2.5h20.5c5.03,0,8.25-12.7,9-13.01,1.37-.57,2.6-.5,2.51,1.5s-2.86,15.36-3.68,15.55c-13.61-.92-28.44,1.08-41.89.01-1.76-.14-3.28.2-4.44-1.57-.25-2.9,5.79-.94,6.85-2.63.35-.57,1.07-11.36,1.18-13.32.5-9.31,1-26.1-.14-34.98-.76-5.89-4.54-3-7.92-5.05-1.65-1,.11-2.52.52-2.52h43.5Z"/>
  <path class="st71" d="M312,922l3,13.99c-3.17,2.87-8.11-9.99-10.5-9.99h-18.5v23h15.5c2.55,0,3.18-7.7,3.51-8,.07-.07,1.99-.1,1.99,0v16.5c0,.72,1.76,2.85.99,4.5-4.08,2.13-4.36-8-7.49-8h-14.5v21.5c0,.18,2.32,2.5,2.5,2.5h18c.63,0,4.64-2.7,5.37-3.63,3.12-3.98,1.18-11,7.12-9.36-1.12,5.64-3.62,11.1-3,16.99h-47c-1.01-6.2,6.96-.2,7.9-7.57,1.11-8.61,1.27-35.48.15-43.98-.94-7.15-7.72-2.99-9.05-8.45h44Z"/>
  <path class="st60" d="M329.5,982c-5.24-1.28,5.75-5.14,5.95-6.05l23.06-55.96c2.35-.01,5.64,8.14,6.66,10.34,7.08,15.22,12.72,31.22,19.36,46.64,2.64,3.12,8.93-.06,7.47,5.03h-24c-1.1-3.32,4.22-2.29,4.91-3.09,1.25-1.45-4.37-17.43-5.8-19.29-1.17-1.52-15.81-.27-18.97-.48-.51,4.31-8.43,16.29-5.17,19.39,1.83,1.74,5.78.28,5.03,3.47-5.18-.84-13.84,1.14-18.5,0Z"/>
  <path class="st20" d="M663.5,982c-.81-.23-2.07-2.47-1.5-2.99.69-.63,5.15,1.03,8.2-4.3,6.73-11.77,11.48-31.37,17.33-44.67,1.46-3.33,2.73-7.19,4.97-10.01,3.14-.03,22.84,50.45,26.03,56.95,2.6,3.11,8.94-.06,7.47,5.03h-24v-3s5.01,0,5.01,0c1.37-1.35-4.47-17.52-5.9-19.39-.81-1.06-18.31-1.21-19.62.37-.7.84-5.69,16.02-5.58,17.53.26,3.58,5.67.54,5.09,4.49-4.65-.84-13.5,1.15-17.5,0Z"/>
  <path class="st0" d="M662,922c.37,4.96-.99,10.31,1,14.99-4.63.88-4.11-4.39-6.15-7.34-3.68-5.33-9.24-3.35-14.85-3.65v50.5c0,2.54,11.41.48,9,5.5h-28c-1.44-5.44,5.93-2.6,8.11-5.39.3-.38,1.89-6.68,1.89-7.11v-43.5c-9.84-.49-17.58-1.46-17,11.01h-3v-15.01h49Z"/>
  <path class="st71" d="M777,922c-1.29,3.15,2.57,13.58-.52,14.99-2.12.97-4.16-9.38-7.1-9.88-3.61-2.05-8.36-.81-12.39-1.11v50.5c0,1.84,7.21,3.11,9.01,2.5v3h-27.01v-3c1.52.48,9-.96,9-2.5v-50.5c-5.28.51-11.94-1.96-15.23,3.27-1.74,2.77-1.06,7.75-4.77,7.73v-15h49Z"/>
  <path class="st71" d="M430,922v3c-1.69-.6-8,.94-8,2.5v50.5h19.5c.71,0,5.15-3.04,5.96-4.04,1.67-2.04,3.4-11.65,6.53-8.96.66.56-4.21,14.25-3,16.99h-47v-3c2.33-.11,7.74.64,8.07-2.47,1.59-14.95-1.32-32.76-.07-48.04-.66-3.63-5.23-3.61-8.01-3.5v-3h26.01Z"/>
  <path class="st120" d="M638,368c-.37-.19-1.38.13-1.99-.01v-.98c3.63.93,2.77-2.01,2.99-2.01h14.5c8.34,0,21.86-7.65,34.17-7.62,1.2,0,6.07.13,6.33,1.61l-27.99,6.01c-.04.62.32.92,1,1,9.3-1.25,21.48-5.51,29.6-5.9,2.09-.1,4.23,1.14,6.39.91l-12.55,4.94c-14.77,2.91-31.52,6.21-46.45,3.05-1.67-.35-3.57-1.85-6-1Z"/>
  <path class="st130" d="M547,407c2.05-5.61-.7-14.33-.99-20.51-.75-15.83-1-31.7,0-47.48,1.75-.23.94,2.27.99,3.48.42,10.29-.6,20.74,0,31,.75,12.7,4.14,25.32,5.1,38.02l-5.62,5.45c-.82-.42-1.03-1.28-1.49-1.96,2.74-3.18-4.5-6.68,0-8l2,2c.15-.62-.17-1.53,0-2Z"/>
  <path class="st44" d="M755,479c1.69-.33,2.76,2.17,1,3-.83.48-.73,1.34-1,2,.68,2.79,1.34,5.46,2,8,2.51,8.77,5.84,17.87,7.77,26.74.22,1.01,1.01,3.51-.76,3.26-3.83-11.52-6.76-24-11.25-35.26-3.57-8.94-9.49-16.44-10.69-26.33-.11-2.9.1-2.04,1.15-.14,1.53,2.78,3.26,6.62,4.91,9.11,2.27,3.42,4.28,4.74,6.86,9.64Z"/>
  <path class="st77" d="M743,679c.61-11.52-.08-23.89-.04-35.54.02-6.18,2.08-11.74-.95-18.46l7.5,8.99c.94-.77-1.03-4.16-1.5-5-1.11-2.58.18-3.04,2-1,.95,1.39,2.04,2.62,3,4l-3.01,6c-6.83-4.36-2.03.99-1.95,2.49.03.5-1.55.01-2.1,1.99-1.68,5.99.08,16.28-.39,22.81-.31,4.26-1.29,9.62-2.54,13.71Z"/>
  <path class="st84" d="M681.99,532c-3.07-3.06-5.51-9.14-7.17-13.32-5.67-14.27-7.7-29.4-8.81-44.68l7.27,34.21,8.71,23.78Z"/>
  <path class="st142" d="M613,323l-1.01-4h-.98s-.01,5-.01,5c-.01-.13-.91-.29-1.04-2.43-.65-10.24.4-22.05,6.55-30.57.22,7.59-2.86,15.02-3.49,22.51-.26,3.12.06,6.36-.02,9.49Z"/>
  <path class="st138" d="M743,502c2.93,15.3,3.76,30.99,7.99,46-3.73-3.08-4.88-10.11-5.71-14.78-1.78-10.06-1.88-21.03-3.28-31.22.28-.87.62-.86,1,0Z"/>
  <path class="st35" d="M630,283c-.96,6.43-3.07,15.62-6.56,20.99-.72,1.12-2.36.91-2.44,1.01l-1-2c2.23-7.1,6.91-14.12,6.01-22l1.98,5.99c-1.03-2.52.89-5.67,1.01-7,.79-.1,1.13.9,1,3Z"/>
  <path class="st77" d="M741,693c-.24.52.37,2.2-.04,3.24-.09.22-2.43,3.71-2.63,3.82-1.28.67-3.59-.11-4.67.27-3.17,1.11-3.41,1.62-7.65,2.68-4.13,1.47-8.13,3.13-12,5-.99,0-2.34-2.77-2,1,0-.13-1.39-.99-.94-2.3,1.37-3.94,26.27-7.47,29.94-13.7Z"/>
  <path class="st68" d="M541,189c4.54-1.06,9.42-1.34,14.01-2.49,6.37-1.59,14.47-5.39,20.48-6.52,2.04-.38,1.91.76.52,1.52-3.65,1.99-12.38,4.03-16.8,5.2-9.09,2.42-19.82,5.22-28.95,7.04-1.2.24-6.05,1.21-6.26-.75,4.38.75,8.17-2.1,12-3.01,2.15-1.46,3.81-1.8,5-1Z"/>
  <path class="st116" d="M632,500c5.45,14.32,10.16,29.15,13.99,44l-2.26-3.23c-4.09-13.31-8.03-26.68-12.73-39.77-.26-1.25-.24-1.55,1-1Z"/>
  <path class="st45" d="M704.99,533l-11.29-37.2-.69-4.79,6.49,17c2.07,8.24,5.15,16.39,5.49,24.99Z"/>
  <path class="st152" d="M607,349c3.07,16.28,10.28,22.27,22.01,32.49.38.33,2.74,2.16,1.48,2.52-10.27-6.4-20.51-17.34-23.79-29.23-.63-2.28-.36-3.98-.7-5.78.28-.87.62-.86,1,0Z"/>
  <path class="st78" d="M660.99,194.99l-8.57-15.91-12.41-17.08c9.52,8.91,18.25,19.97,20.98,32.99Z"/>
  <path class="st98" d="M572,119c4.18-.92,8.94-1.06,13.49-2.03l-1.49,2.03c-6.69.38-8.54,2.54-13.54,3.96-6.55,1.86-12.77,2-18.95,6.05-.26-1.62,3.68-3.7,4.82-4.18,5.47-2.34,11.18-2.04,16.45-4.57l-.77-1.26Z"/>
  <path class="st5" d="M556,365l4.99,41c-1.49.25-1.24-1.87-1.49-2.98-2.07-8.99-4.83-26.03-4.5-35.01-.56-2.42-.23-3.42,1-3Z"/>
  <path class="st38" d="M659.99,534c-2.55-1.7-3.32-6.33-4.26-9.23-2.62-8.09-4.64-16.52-6.72-24.76l4.26,10.23,6.72,23.77Z"/>
  <polygon class="st26" points="577 381.99 574.01 379 573.01 383 568.01 352 572.7 371.8 577 381.99"/>
  <path class="st162" d="M600.99,165.01c1.41,1.32-1.72,2.62-2.46,3.03-2.69,1.53-11.6,5.71-14.31,6.69-4.69,1.7-11.21,2.84-16.23,3.26l14.19-4.29c2.37-.85,18.04-9.4,18.8-8.69Z"/>
  <path class="st67" d="M634.99,497.99l-3.74-7.74-9.24-26.25c1.74,1.12,2.95,4.78,3.76,6.73,3.58,8.61,6.92,18.21,9.22,27.26Z"/>
  <polygon class="st55" points="731.99 543 728.87 534.63 724.01 510.01 728.32 524.18 731.99 543"/>
  <path class="st57" d="M631.01,293l4.53-14.96,2.45-16.03c1.12,7.63-.43,16.22-2.96,23.53-.79,2.3-1.88,6.17-4.02,7.47Z"/>
  <path class="st131" d="M762,579c-1.47,4.93-2.4,1.91-6,3-.19-.34-1.61-.93-2.24-2.22-3.05-6.24,2.32-1.12,3.73-5.78,1.81,1.42,3.06,3.28,4.51,5Z"/>
  <path class="st46" d="M614.99,185.01c.23,1.78-2.25.98-3.36.87-7.05-.65-6.59.7-11.17,1.11-.47.04-.38-1.51-.64-1.68-.55-.35-3.32,1.47-3.82-1.31,3.38,1.07,5.78-1.97,8.44-2.07,3.28-.12,7.35,2.35,10.55,3.07Z"/>
  <path class="st147" d="M756,477c2.41,4.39,8.46,9.79,7.5,15-3.42-2.69-5.46-6.3-7.5-10-.36-.64-.45-1.96-1-3l1-2Z"/>
  <path class="st112" d="M717,395c-1.67,3.9-3.17.75-5.66.32-.77-.13-2.24.8-2.33.69-.23-.3.53-2.37-.58-3.12-.35-.24-5.17-1.54-6.43-1.89,3.82-.02,7.79-.3,11.48,1.03,2.84,1.03,2.45,2.17,3.52,2.97Z"/>
  <polygon class="st80" points="628.99 465.99 623.83 456.67 619.01 442.01 628.99 465.99"/>
  <path class="st115" d="M636,548c.92,5.67-4.06,10.66-3.01,17-1.2.08-1.44-1.51-1.99-2-2.2-3.44.95-2.82,1.03-3.66.1-.99-.83-2.22-.42-3.36.89-2.44,3.08-5.6,4.39-7.98Z"/>
  <path class="st6" d="M611.99,466l-7.98-24.99c1.73.27,1.74,1.99,2.26,3.23,2.78,6.53,4.72,14.73,5.72,21.77Z"/>
  <path class="st85" d="M638,289c-1.01,2.96-1.16,4.38-3,1,3-5.92,6.18-13.31,6.01-20,1.86-.02,1.04,4.28.88,5.39-.56,3.95-2.56,9.69-3.89,13.61Z"/>
  <path class="st64" d="M556,365c-1.3.48-.96,1.9-1,3-1.76-7.79-2.1-16.04-1.99-23.99l2.99,20.99Z"/>
  <path class="st140" d="M639.99,461.99l-4.01-8.48-2.97-11.51c1.44-.24,1.31,1.69,1.73,2.74,2.13,5.4,4.06,11.56,5.25,17.24Z"/>
  <path class="st169" d="M729,398c3.08,7.46-6.32.76-9-1l6,1.01.5-3.01c1.12.55,1.84,2.49,2.51,3Z"/>
  <path class="st41" d="M607,349h-1c-1.04-5.5-2.99-11.39-1.5-17.01,1.1,0,2.11,14.95,2.5,17.01Z"/>
  <path class="st79" d="M650,223c-1.48-5.09-5.29-11.29-6-16.99,2.77-.48,1.69.57,2.25,2.19,1.57,4.46,3.33,9.36,4.74,13.81l-1,1Z"/>
  <path class="st96" d="M629,280c.32-3.68-.46-7.95,0-11.52.19-1.46.76-3.1,2-1.48.05,5.27-.22,10.8-.99,16l-1-3Z"/>
  <path class="st113" d="M757,598c-.29.83-.62.81-1,0-2.28-4.83-5.43-11.84-5.5-17.01,3.22,5.09,4.36,11.63,6.5,17.01Z"/>
  <path class="st37" d="M659,218c.51,2.72-.07,3.48,0,4l-7.02-15.49,7.02,11.49Z"/>
  <path class="st155" d="M641,155l-1,1c-2.74-2.76-5.5-5.5-8-8.5-.94-1.12-2.42-1.63-1.99-3.5,4.32,2.77,7.42,7.6,10.99,11Z"/>
  <polygon class="st104" points="599.99 387.99 594.23 376.27 593.01 371.01 598.48 382.02 599.99 387.99"/>
  <path class="st54" d="M748.99,503c-1.44.24-1.35-1.74-1.69-2.78-1.46-4.5-2.39-9.55-3.29-14.21,1.61.21,2.07,3.63,2.49,4.99,1.17,3.77,2.24,8.05,2.49,12Z"/>
  <path class="st103" d="M500,130c-1.13,1.34-3.49,6.06-4.01,7.99l-1.99-2.99c1.47-2.26,2.38-5.49,5.48-6.01l.52,1.01Z"/>
  <path class="st77" d="M742,691c.19-2.83-.29-5.77-.05-8.59.11-1.31,1.04-2.28,1.05-2.41,4.51,6.1,1.16,6.07-1,11Z"/>
  <path class="st167" d="M612,203c2.96,4.2,6.51,8.66,6.99,13.99l-7.99-12.99,1-1Z"/>
  <path class="st22" d="M748,629c-1.35-2.37-4.63-4.42-3.99-8,4.38,1.42,4.5,4.82,5.99,7l-2,1Z"/>
  <path class="st70" d="M566,383l2.99,16c-1.51.14-1.59-2.45-1.91-3.57-1.08-3.78-1.25-7.67-2.08-11.42-.06-.98-.04-1.35,1-1Z"/>
  <path class="st10" d="M578,462l-4,8c-1.93-5.66.7-4.86,2.01-10l1.99,2Z"/>
  <polygon class="st139" points="687.99 480 685.08 472.42 684.01 465 687.99 480"/>
  <path class="st160" d="M498,192l11.49-8.01c1.32.48-1.16,2.1-1.58,2.42-2.4,1.87-6.16,4.35-8.91,5.59-.33.75-.67.75-1,0Z"/>
  <path class="st53" d="M753,464c1.51,3.46,5.11,7.54,4.99,11.99l-5.99-10.99,1-1Z"/>
  <path class="st150" d="M620.99,387c-3.27-2.35-7.02-5.93-7.98-10,.45-.51,8.17,8.16,7.98,10Z"/>
  <path class="st123" d="M690,378l-1,1-11.99-1.99c4.2.46,9.33-1.17,12.99.99Z"/>
  <path class="st89" d="M516,193c1.04.55.37,1.22-2,2l-9.99-.99c4-.73,7.99-.39,11.99-1.01Z"/>
  <path class="st8" d="M566,383l-1,1c-.88-3.94-3.74-8.45-2.99-13l3.99,12Z"/>
  <path class="st121" d="M491,137c.73-3.43,1.52-9.26,6-9.99-2.24,3.22-3.77,6.75-6,9.99Z"/>
  <path class="st165" d="M632,500l-1,1c-1.23-3.43-3.6-7.17-3.99-11,2.37,2.2,3.82,6.92,4.99,10Z"/>
  <path class="st146" d="M498,192c.28-.12.72.12,1,0v1c-3.55,1.01-6.18,3.34-10,2.99,1.71-2.68,6.47-2.88,9-3.99Z"/>
  <path class="st89" d="M511.01,191.99l8.98-5.99c-.48,3.51-5.99,5.99-8.98,5.99Z"/>
  <path class="st72" d="M536,190c4.03-2.95,7.55-5.82,12.54-6.97,4.18.62-5.04,3.45-5.41,3.61-.33.14-4.62,1.72-2.13,2.36-1.82.43-3.52.65-5,1Z"/>
  <path class="st40" d="M580.99,394.99c-1.45-.69-2.74-4.78-3.2-6.29-.48-1.59-1.14-2.93-.78-4.7,1.45-.23,1.3,1.69,1.73,2.75,1.05,2.61,2.1,5.39,2.25,8.24Z"/>
  <path class="st126" d="M492.99,189.01l-9.99,4.98c2.06-2.81,6.64-4.75,9.99-4.98Z"/>
  <path class="st13" d="M754,500l-1,1c-.8-3.33-3.13-7.2-2.99-10.99l3.99,9.99Z"/>
  <path class="st4" d="M522,192c1.99-.82,4.56-4.92,8-3.99-1.52,2.25-5.54,4.08-8,4.99-.87-.28-.86-.62,0-1Z"/>
  <path class="st28" d="M499,193c2.87-.81,6.05-1.46,8.99-1.99l-8.54,3.95-.45-1.96Z"/>
  <path class="st105" d="M593,176.01c-1.17,2.15-5.77,2.73-7.99,2.98,1.29-2.71,5.4-2.95,7.99-2.98Z"/>
  <path class="st133" d="M604,372c1.17,2.29,2.36,5.47,2.99,8-3.04-1.33-2.95-5.49-3.99-8,.29-.81.62-.8,1,0Z"/>
  <path class="st144" d="M522,192v1c-2.44.9-5.4,1.72-8,2l2-2c1.58-.24,4.78-.5,6-1Z"/>
  <path class="st97" d="M655,198l-1,1c-.62-1.56-3.49-3.56-2.99-6,2.09.83,3.16,3.08,3.99,5Z"/>
  <path class="st65" d="M743,502h-1c-.15-1.09-2.44-4.26-.5-6.01.84,0,1.27,4.81,1.5,6.01Z"/>
  <path class="st134" d="M607,230c-.33,3.86-2.11,8.08-2.5,12.01-1.85,0,1.44-11.22,1.5-12.01h1Z"/>
  <path class="st105" d="M584,178.99l-6,1c1.13-2.42,4.96-4.39,6-1Z"/>
  <path class="st32" d="M757,598c.62,1.55,3.5,3.57,2.99,6-2.15-1.02-3.04-3.97-3.99-6h1Z"/>
  <path class="st145" d="M643,377c1.5.92,5.34,2.43,3.99,4-.4.46-4.21-2.56-4.99-3l1-1Z"/>
  <path class="st47" d="M754,461l-1,1c-.51-1.2-2.84-2.55-1.99-5,1.74.48,2.3,2.56,2.99,4Z"/>
  <path class="st163" d="M604,372h-1c-.44-1.08-2.69-2.02-1.99-4,1.78.48,2.26,2.57,2.99,4Z"/>
  <path class="st147" d="M758,491l-1,1c-.87-3.05-3.26-4.95-2-8,.73,2.43,2.09,4.67,3,7Z"/>
  <path class="st122" d="M287,288c1.45-.69,1.95-4,1.92-5.39-.1-3.94-4.81-11.03,3.08-4.61l1-5c1.01,5.11,1.45,10.55,2.97,15.54.41,1.34.08,3.11,2.03,3.46.27-1.78-3.98-20.96-2.49-21.01,3.93,5.14,3.24,12.94,8.49,17.01l-6.98-19c6.4,2.1,5.47,10.93,9.98,15-.94-5.42-4.46-10.32-3.98-15.99,1.47-.23,1.32,1.74,1.68,2.79,1.09,3.17,2.14,6.83,2.32,10.2,1.7.27,1.09-2.41.91-3.41-.66-3.81-2.9-7.25-1.92-11.58,4.93.6,3.86,5.75,3.26,9.22l1.73,7.77.49-18.01,1.5-.98,2,3.99,1-3.99,1,4.99c.3-1.4-.5-5.19.11-5.9.47-.54,12.23-3.57,13.89-2.6-10.29,12.31-16.3,32.07-17.98,48.02-3.21,30.51-7.55,51.05-20.84,79.16-5.12,10.83-11.36,19.6-18.19,29.32l-4.8-13.68c-.6-2.36-3.7-4.89-4.04-7.03-.82-5.16,16.94-32.56,20.85-38.28,1.85-2.81,1.85-3.14,0-1l-23.5,36c-7.24-7.95-18.23-13.89-29-14.99l.5-1.99c-1.99-.29-2.58,1.6-4.53,1.97-3.38.64-7.91-.38-11.47.02.37-3.81,4.73-3.77,5-4s-2.78-5.01-.99-6.99l3.98,2.99-.98-8.99,3.98,4.99.02-9.99,1.98,1.99-.98-7.99c3.84-.76,2.16,6.23,4.98,6.99l-.98-8.99,1.98,2.99-.49-5.99c2.49,2.06,2.48,5.33,3.5,8,1.06,1.62,1.39,1.62,1,0-.92-3.83-2.3-8.89-2.95-12.57-.75-4.29,1.84,1.46,1.95,1.57,2.55-1.07,3.88.26,4,4,0,2.86,1.52,5.27,2.01,7.99,1.88.2.81-2.1.7-3.2-.2-2.14-1.25-4.4-.71-6.79h.98s2,3.99,2,3.99c-3.45-7.76-3.38-14.77-3.98-23,5.99,5.03,1.83,15.86,6.49,21.99l-2.49-21.99c4.91,2.84,4.69,10.05,6,14.99,1.79.23.97-2.25.87-3.37-.21-2.29-1.92-5.36-.38-7.64l5.49,11.01c-.3-4.82-.81-9.72-1.03-14.53-.09-2.06,1.06-3.85.84-5.74-.29-2.45-3.39-6.46-3.81-9.21l4,4.49-1.98-7.99,2.98,3.99.02-6.99,5.51,7.98,4.47,15.01-3-29.48,3,2.49c.57-1.63-.84-3.44-.87-4.56,0-.27,3.33-1.03,1.89-4.44,3.5,3.12,3.74,11.75,4.03,16.49.3,4.99-3.76-5.54-3.05-5.48-1.82-.25-.83,2.08-.55,3.05,1.21,4.32,4.46,10.74,7.56,13.94-1.79-4.9-2.58-10.24-3-15.5-.14-1.7,1.13-3.66.98-5.89-.19-2.86-2.92-6.19-1.97-9.62l1.98,1.01,1.03-5c1.44-.24,1.39,1.77,1.68,2.8,1.1,3.93,1.07,8.05,2.01,12l5.29,12.19c-2.19-8.04-5.3-16.11-5.98-24.53-.2-2.47,0-2.24,1.28-.27,3.52,5.45,5.15,11.31,5.72,17.8,1.86.02,1.04-4.29.88-5.39-.51-3.56-2.31-7.33-2.89-10.61Z"/>
  <path class="st107" d="M507,156.01l-248.99,107.98,73.69-45.8,112.32-63.68c11.64-4.78,24.44-1.87,36.49-1.45,3.33.12,6.05-1.13,8.95-1.1,5.98.06,11.91,2.48,17.55,4.05Z"/>
  <path class="st14" d="M261,425c-1.3.67-2.3,2.34-3,5,0,11.59-18.53,35.18-26.49,44.01-1.79,1.99-12.82,13.44-14.03,13.98-.44.2-1.64.25-1.48-.49,7.42-10.76,18.68-20.66,21.98-33.5-1.75-.51-.48,2.4-1.48,1.99-2.61-1.06.73-7.15-1.57-9.96-4.29-3.01-37.39,24.36-42.93,27.96.8-12.1,2.7-24.2,5.48-36.01,1.23-5.22,4.39-18.37,6.42-22.58,4.23-8.78,32.85-9.55,38.09,1.1h-6.99s8.02,4.97,8.02,4.97l9.98,12.51c-1-28.86-23.86-34.01-46.99-22.99-.32-.42,1.66-6.2,2.22-6.77.52-.54,9.48-3.23,10.27-3.23h15c.57,0,4.3,2.65,4.49.01-8.99-1.97-18.97-4.72-27.98-2.01,2.52-5.36,1.91-12.52,8.73-13.76,22.85-4.16,48.19,15.3,42.26,39.76Z"/>
  <path class="st15" d="M452,200l-87.72,40.78c-7.91,2.23-16.01,3.82-24.28,3.21l7.32-4.17c30.95-13.15,61.85-26.52,92.35-40.65,10.34-4.79,24.79-13.76,34.84-17.16,1.08-.37,1.93-.31.99.99-2.67,3.68-17.79,18.34-21.5,20-.95.72-1.62-.28-2-3Z"/>
  <path class="st124" d="M801,609c2.49,5.65,3.69,9.77,5.67,15.01.8,2.12,3.47,3.5,3.32,5.99-15.82-12.93-21.62-34.27-27.26-53.23-6.06-20.41-9.29-38.27-11.73-59.28-.25-2.13.77-1.84,1.5-.49,2.45,4.52,10.83,30.79,12.27,36.74.26,1.08.3,2.17.21,3.27l-1.98-1.99c3.97,16.68,10.88,32.62,15.99,48.99-2.01-2.54-1.7-.98.93,4.69.93,4.6-.76,2.32,0,.45.07-.16.52-.17,1.08-.14Z"/>
  <path class="st157" d="M795.99,656c-3.82-3.76-6.02-10.02-8-14.99-1.88-.2-.83,2.03-.51,3.01,6.25,19.16,18.15,36.3,25.51,54.98-24.99-29.93-38.21-66.1-45.98-104,2.78,2.19,4.32,6.48,5.85,9.64,8.17,16.87,15.63,34.19,23.13,51.36Z"/>
  <path class="st110" d="M833.99,650c-9.17-7.75-14.07-23.13-18.01-34.48-4.83-13.89-9.27-29.81-12.9-44.1-2.09-8.21-4.47-17.04-5.07-25.42l35.98,103.99Z"/>
  <path class="st120" d="M847.99,749.99l-19.81-46.67c-10.39-21.08-19.73-42.65-26.17-65.32l14.16,28.32c9.01,28.58,25.03,54.44,31.82,83.67Z"/>
  <path class="st86" d="M217.1,472.89c-.23-.2.12-2.08-.58-1.9-3.46.88-25.34,16.08-26.52,15,3.59-5.56,10.21-10.72,15.54-14.95,7.93-6.28,16.48-11.57,24.96-17.04,2.72,3.9-11.99,20.08-13.41,18.88Z"/>
  <path class="st86" d="M793,561l1.31.31c.95,4.99,2.18,9.89,3.69,14.69.42,2.95,1.03,5.18,1.56,7.95.2,1.03,1.31,3.28-.55,3.04-4.91-14.11-10.52-28.05-15.28-42.22-3.16-9.4-9.32-25.1-10.74-34.27-.09-.59-.26-1.65.51-1.5,3.41,4.55,5.47,10.17,7.52,15.48,4.54,11.75,8.67,24.43,11.98,36.52Z"/>
  <path class="st34" d="M806.99,541c-14.07-16.64-24.84-40.22-26.98-61.99l26.98,61.99Z"/>
  <path class="st76" d="M759,453c7.56,20.81,17.14,40.74,26.99,60.51.21.65-.89.72-1.48.5-.5-.19-5.52-7.44-6.31-8.71-11.42-18.31-15.46-31.65-20.2-52.3.28-.87.62-.86,1,0Z"/>
  <path class="st132" d="M512,130.01c-1.89,2.7-5.17,3.47-6.77,6.73-5.3,10.78,9.41,12.87,13.27,4.25,2.51,8.54-11.18,14.42-15.72,6.73s.09-18.49,9.22-17.71Z"/>
  <path class="st143" d="M664.99,175c-3.12-3.74-4.73-8.83-7.56-12.93-8.77-12.74-22.37-19.02-32.43-30.06,1.79-.38,2.78.56,4.16,1.33,15.62,8.77,30.23,24.52,35.83,41.65Z"/>
  <path class="st151" d="M779,609c1.06.7,2.21,1.72,2,3,.05.32-.07.68,0,1l1.47.55c4.06,7.55,7.57,15.36,10.53,23.45,2.33,6.57,5.99,14.41,7.56,20.95.24,1.01,1.32,3.27-.55,3.04-2-4.83-3.7-9.9-5.84-14.67-5.04-11.21-14.77-28.02-18.16-38.85-.16-.51-.27-1.63.48-1.48,1.16.62,1.76,2.34,2.51,3Z"/>
  <path class="st129" d="M318.99,375c2.24,2.89-10.94,17.41-13.48,20.01-5.12,5.23-11.82,11.01-18.51,13.98,6.8-9.01,17.63-15.16,24.52-23.97,2.03-2.59,3.01-5.49,4.89-8.14.84-1.18.03-2.45,2.58-1.88Z"/>
  <polygon class="st2" points="800.99 516.99 793.82 504.68 782.01 474 792.17 492.33 800.99 516.99"/>
  <path class="st36" d="M677,353c1.87-.21,4.05.07,6,0,1.32-.39,2.42-.55,2,1-14.49,1.93-27.96,8.39-42.48,10.02-1.58-.99.79-1.33,1.47-1.51,8.02-2.08,14.55-5.38,22.01-7.51,4.46-3.64,8.13-4.3,11-2Z"/>
  <path class="st100" d="M758,453c-1.07-4.67-3.53-9.14-3.99-13.99l3,5.99,2.97-4.98c.27,3.32,10.85,13.59,9,15.99-.32.42-2.55-1.89-2.98-.51,1.79,2.45,3.36,5.33,2.98,8.5l-7.99-17c-.01,1.13-.35,1.8-1,2-.26.95-1.75,2.2-1,4h-1Z"/>
  <path class="st108" d="M831.99,572.99l-5.72-11.77-6.26-30.22c1.46-.23,1.33,1.74,1.68,2.79,4.33,12.79,6.88,26.16,10.3,39.2Z"/>
  <polygon class="st159" points="829.99 618 816.25 585.25 814.01 577.01 827.46 606.04 829.99 618"/>
  <path class="st132" d="M343,288.01c-.87,3.09-16.64,13.34-17.99,11.99,1.34-11.17,9.58-9.08,17.99-11.99Z"/>
  <path class="st51" d="M769,469c2.39-.94,4.49,6.63,4,9,1.52,5.05,4.44,9.67,5.65,14.86.39,1.69,1.02,3.25-1.15,1.15l-17.49-45.01c.21-.76.28-1.51,1-2,1.19,7.86,4.76,14.92,8,22Z"/>
  <path class="st141" d="M351,278.01c1.59,1.93-17.71,7.82-20,6.98.89-1.47.48-3.54,2.22-4.32,1.94-.88,16.91-3.72,17.78-2.66Z"/>
  <path class="st125" d="M786,437c4.26,6.83,3.35,6.64,5.46,13.04.46,1.39,7.62,18.94,5.04,18.97l-11.5-32.01c.3-.61.63-.6,1,0Z"/>
  <path class="st156" d="M666,355l7.71-6.98c7.04-1.5,16.78,2.15,6.75,3.97-.41.07-.02-4.7-3.45,1-3.82.43-7.31.95-11,2Z"/>
  <path class="st81" d="M816.99,543l-4.93-12.56c-1.27-6.14-3.77-12.04-3.05-18.43l3.75,8.73c-.41,7.8,3.8,14.58,4.23,22.26Z"/>
  <path class="st81" d="M784,456.99c-1.67,1.64-2.14-1.34-2.58-1.88-5.22-6.48-7.9-12.68-11.42-20.1,1.53-1.47,4.78,4.09,5.42,5.07.93,1.44,9.26,16.24,8.58,16.91Z"/>
  <path class="st82" d="M781,613c3.04-.54,2.4.13,3.54,1.93,4.58,7.29,5.86,14.73,8.46,22.07l-12-24Z"/>
  <polygon class="st21" points="257.99 331.99 252.68 320.8 253.01 313 257.57 320.93 257.99 331.99"/>
  <path class="st11" d="M302.01,386c2.25-5.9,4.24-13.13,10.98-15,1.8,2.33-8.25,13.69-10.98,15Z"/>
  <path class="st81" d="M759.99,436.99l-5.83-6.66-6.15-13.34c5.47,5.15,10.5,12.51,11.98,19.99Z"/>
  <path class="st94" d="M839.99,702l-9.98-22.99c4.98,6.15,9.15,14.96,9.98,22.99Z"/>
  <path class="st3" d="M769,469l2.01-5c3.52,1.1,1.18,4.6,1.44,6.53.24,1.75,4.29,6.73,3.57,9.96-1.55,1.64-1.79-3.27-2.03-3.48-.67-.58-.92,1-.99,1-.74-.03-3.31-7.5-4-9Z"/>
  <path class="st109" d="M806.99,480c-4.71-3.97-6.79-9.92-6.98-15.99,1.55.81,3.32,3.9,4.03,5.46,1.48,3.23,2.69,6.97,2.95,10.54Z"/>
  <path class="st23" d="M710,375c-1.77-.89-6.3-.72-8-3.5,2.83-.67,9.83-2.04,12.02.19,2.64,2.69-1.05,2.23-2.03,3.32-.2.51-.87.51-2,0Z"/>
  <path class="st25" d="M798,576c-3.7-3.92-3.63-9.99-5-15,2.12-1.69,2.34-.43,3,1.5,1.48,4.33,1.36,9.08,2,13.5Z"/>
  <path class="st164" d="M755.99,421.99l-10.99-13.98c5.76,2.24,10.49,7.65,10.99,13.98Z"/>
  <path class="st56" d="M786,437h-1c-2.85.83,2.85,7.65-2,6.99.48-5.19-2.41-10.83-3.49-16,2.73,1.76,4.72,6.17,6.49,9.01Z"/>
  <path class="st75" d="M243,346c-1.07-1.56-2.8-2.63-4-4v-6.01s1.99,1.03,1.99,1.03l.99-3.01c3.12,4.8,1.02,7.7,1.01,11.99Z"/>
  <path class="st128" d="M799,604c.73,1.59,1.2,3.18,2,5l-1,2.49c-2.04-6.27-5.49-12.23-7.52-18.47-.32-.98-1.37-3.21.51-3.01,1.22,5,3.89,9.39,6.01,13.99Z"/>
  <path class="st61" d="M790.99,548l-8.98-26.99c1.73.27,1.74,1.99,2.26,3.23,2.96,6.96,5.74,16.36,6.72,23.77Z"/>
  <path class="st66" d="M261,425c-.51,2.11-.74,5.59-3,5,0-4.48-2.78-8.56-2.99-13l5.99,8Z"/>
  <polygon class="st33" points="811.99 650.99 807.14 642.36 803.01 632 809.85 643.65 811.99 650.99"/>
  <path class="st114" d="M795.99,585c-4.32-5.47-6.57-13.25-7.98-19.99,1.52.24,2.2,3.4,2.74,4.74,2,4.91,3.81,10.14,5.24,15.25Z"/>
  <path class="st63" d="M712,375c3.19.5,7.34,2.69,9.93,4.57.62.45,3.5,2.49,2.56,3.44-5.4-1.54-9.63-5.57-14.49-8.01.65.07,1.37-.1,2,0Z"/>
  <path class="st19" d="M773.99,433c-2.17-.84-9.57-13.35-8.98-14,4.31.71,3.28,3.98,4.56,5.93,1.68,2.55,5.04,4.14,4.42,8.07Z"/>
  <path class="st42" d="M778.98,457.01c1.57,1.34,7.51,14.98,8.01,17.99l-9.98-17.5c-.13-.85,1.86-.59,1.97-.49Z"/>
  <path class="st88" d="M734,394c.1.07.89-1.11,2.5-.1,3.1,1.96,7.62,8.28,10.5,11.09l-13-9.99c-.87-.28-.86-.62,0-1Z"/>
  <polygon class="st62" points="764.99 544.99 758.68 530.75 759.51 527 764.99 544.99"/>
  <path class="st73" d="M287,288c-1.93-.09-5.86-9.88-1.49-11,2.59,3.11.88,7.55,1.49,11Z"/>
  <path class="st136" d="M265.99,299c1.02,1.02,2.42,9.05,2,11-2.81-1.54-4.03-6.54-4.02-9.48,0-1.58.9-2.64,2.02-1.51Z"/>
  <path class="st50" d="M766,427c.59,1.6.55,1.86-1,1-4.13-2.23-5.45-7.79-6.99-12,1.06.34,2.41,1.6,3,2.49,1.21,1.81,3.98,6.54,4.99,8.51Z"/>
  <path class="st119" d="M726,703c-2.84,2.86-8.06,5-12,5,.11-3.89,8.56-4.15,12-5Z"/>
  <polygon class="st106" points="803.99 511 801.23 503.27 801.01 496.01 803.74 505.76 803.99 511"/>
  <path class="st127" d="M827.99,544c-1.43.24-1.36-1.74-1.69-2.78-1.13-3.59-1.69-7.5-2.29-11.21,1.56.19,2.15,3.68,2.5,4.98.78,2.88,1.33,6.02,1.48,9.01Z"/>
  <path class="st166" d="M730,391c1.06,1.82.39,2.15-2,1-.92-.53-1.96-.82-3-1,.93.5,1.92,3.93-.48,2.99s-1.94-4.29.48-2.99l-4.49-4.01c4.32-.67,6.59,2.38,9.49,4.01Z"/>
  <path class="st52" d="M795.99,485c-1.45.14-1.61-2.36-2-3.48-.93-2.68-1.78-5.68-1.98-8.52,3.25,2.35,3.56,8.28,3.98,11.99Z"/>
  <path class="st158" d="M803,547c.09,1.01.04,1.36-1,1-1.98-4.48-4.7-8.9-4.99-13.99l5.99,12.99Z"/>
  <path class="st102" d="M760,406l2-1.49,1.99,5c1.74,1.57.41-1.45,1.51-1.52,1.01-.07.32,2.52.51,3.51-2.2,1.4-4.88-3.01-6.01-4.5v-1Z"/>
  <path class="st30" d="M793.99,629.99l-3.86-6.62-1.12-4.37c3.21,2.22,4.6,7.28,4.98,10.99Z"/>
  <path class="st29" d="M810.99,622c-3.02-2.12-4.37-7.47-4.98-11,2.84,2.34,4.03,7.52,4.98,11Z"/>
  <path class="st149" d="M766,427c1.66,3.25,3.64,6.09,2.99,10l-3.99-9,1-1Z"/>
  <path class="st137" d="M683,353c.14,0,1.02-1.05,2.42-1.05,2.55,0,5.65,1.79,8.58,1.06-.5,1.37-5.31,1.55-6.73,1.66-1.13.09-2.11-.69-2.26-.67l-2-1Z"/>
  <path class="st49" d="M603.99,213l-4.98-9.99c2.93,2.25,5.41,6.22,4.98,9.99Z"/>
  <path class="st16" d="M252.99,327c-2.85-1.57-5.22-4.59-4.98-8,2.17,1.85,5.19,4.94,4.98,8Z"/>
  <path class="st90" d="M828.99,676.99c-1.43-.9-2.96-4.21-3.69-5.8-.62-1.35-1.5-2.62-1.29-4.2,2.81,2.06,4.75,6.64,4.98,9.99Z"/>
  <path class="st27" d="M832.99,677c-2.3-1.65-4.63-5.18-4.98-8,2.66,1.39,4.58,5.07,4.98,8Z"/>
  <path class="st59" d="M830.99,669c-2.54-1.44-3.96-5.21-3.98-7.99,2.18,1.48,4.07,5.37,3.98,7.99Z"/>
  <path class="st9" d="M760,407c-1.14-1.52-6.32-6.66-1.01-7.01l1.01,6.01v1Z"/>
  <path class="st118" d="M666,365l1,1c-2.48.33-5.7,1.9-8.99.99l7.99-1.99Z"/>
  <path class="st83" d="M730,391c1.44.81,2.59,2.08,4,3v1c-2.81.47-3.96-1.82-6-3l2-1Z"/>
  <path class="st7" d="M452,200c3.69-.54.65,1.27,2,3-.79.35-1.3,1.61-3,.99l1-3.99Z"/>
  <path class="st1" d="M803,547l1.99,6.99c-2.01-.62-2.26-4.35-2.99-5.99l1-1Z"/>
  <path class="st91" d="M706.99,368.01c-1.39,2.31-6.68.39-8.99.98,1.31-2.3,6.68-.4,8.99-.98Z"/>
  <path class="st117" d="M571,270.01c-1.07,1.83-2.9,4.24-5,3.98,1.07-1.83,2.9-4.24,5-3.98Z"/>
  <path class="st9" d="M753.99,397c.19.18.78,4.09,1,5-3.27-.76-3.67-7.52-1-5Z"/>
  <path class="st69" d="M466,138.01c0,1.42-4.76,4.23-4.99,3.99-1.46-1.58,3.94-4.24,4.99-3.99Z"/>
  <path class="st82" d="M781,612c-1.43-.43-1.99-1.54-2-3,.28.25,1.82.05,2.58.96,1.01,1.22-.6,1.94-.58,2.04Z"/>
  <path class="st153" d="M539,128c1.46-1.79,1.9-3.55,5-2.99,1.33.63-4.06,2.63-5,2.99Z"/>
  <path class="st74" d="M532,123.01l-3.99,3.99c-.21-2.15,2-4.24,3.99-3.99Z"/>
  <path class="st170" d="M286,358v-1l2.51-3.99.5.5c-.08,1.91-2.05,3.08-3.01,4.49Z"/>
  <path class="st101" d="M240,353c.16.66,1.62,1.41.99,3-1.79-.21-1.55-1.86-1.99-3h1Z"/>
  <path class="st31" d="M447.69,635.13l71.88,85.9c-20.65,12.98-50.2,18.57-71.89,4.79-33.86-21.5-35.03-69.93,0-90.69Z"/>
  <path class="st92" d="M500.99,603c6.5,32.75,27.31,60.24,53.88,79.63l-11.89,18.36c-1.46.39-1.66-.39-2.5-.97-5.55-3.83-17.79-18.21-22.99-24.01-15.34-17.11-29.08-35.64-43.48-53.53-.4-2,.45-1.22,1.27-1.71,3.71-2.19,7.97-3.83,11.63-6.37,4.44-3.08,7.94-7.91,11.58-10.42.85-.58.99-1.4,2.51-.98Z"/>
  <path class="st31" d="M466.09,611.94c-8.93-15.44-21.59-34.94-11.64-52.99,8.94-16.23,33.14-13.21,38.83,4.28,6.52,20.03-8.02,42.38-27.19,48.72Z"/>
  <path class="st154" d="M214,950v-24c25.51-4.42,25.44,28.92,0,24Z"/>
  <path class="st95" d="M365,955h-15l6.01-20c1.42.12,1.57,1.47,2.03,2.46,2.54,5.55,4.34,11.96,6.96,17.54Z"/>
  <polygon class="st99" points="699 955 683 955 690.5 934.99 699 955"/>
  <rect class="st17" x="612.01" y="303" width=".98" height="4.99"/>
  <path class="st161" d="M294.99,302.99c-1.41.22-1.57-2.78-1.71-3.77-.76-5.44-.58-10.88-2.27-16.22,1.4-.16,1.68,2.38,2.02,3.46,1.69,5.34,2.33,10.93,1.96,16.53Z"/>
  <path class="st168" d="M268.99,332.99c-1.44.24-1.31-1.69-1.73-2.75-2.1-5.32-3.84-11.67-5.25-17.24,1.62.47,2.46,3.97,3.01,5.48,1.69,4.63,3.04,9.67,3.97,14.51Z"/>
  <path class="st168" d="M264.99,336.99c-1.51,0-1.87-3.02-2.25-4.23-.9-2.83-1.78-5.75-1.73-8.76l3.98,12.99Z"/>
  <path class="st87" d="M277.99,326c-2.64-1.24-2.54-5.53-2.98-7.99,2.15,1.16,2.73,5.77,2.98,7.99Z"/>
  <path class="st48" d="M284.99,315c-2.42-1.52-1.86-6.55-1.98-8.99l1.98,8.99Z"/>
  <path class="st111" d="M452,171c-20.46,7.82-38.99,17.88-59,26h-1c10.23-5.1,20.52-10.47,30.7-15.73,1.19-.62,1.8-2.01,2.3-2.27,1.71-4.24,7.03-4.83,11-5,1.83-.96,15.45-6.85,16.02-4.62.13.5.08,1.05-.02,1.62Z"/>
  <path class="st111" d="M432,172c2.04-1.07,15.71-7.62,16.62-7.71,1.68-.16,3.78.99,5.87.8,5.48-.51,11.01-1.68,16.5-2.08-2.34,3.09-7.57,3.72-11,4.99-7.32.5-15.65,2.17-25,5-2.41,2.94-7.98,2.59-3-1Z"/>
  <path class="st148" d="M460,168c-2.65.98-5.36,1.99-8,3-3.2-2.85-7.29,1.51-10.23,2.36-1.9.55-3.3-.11-5.77.64-1.11.16-1.44.12-1-1,7.91-3.27,13.32-5.86,22.27-6.36,1.77-.1,1.36-1.23,2.73,1.36Z"/>
  <path class="st18" d="M432,172c-2.35,3.09.45,2.05,3,1l1,1c-3.93,1.2-7.4,3.11-11,5-2.29-2.83,4.54-5.71,7-7Z"/>
  <path class="st39" d="M392,197h1c-1.35.55-2.7,2.2-4.49,2.01-1.24-2.04,2.86-1.7,3.49-2.01Z"/>
  <path class="st130" d="M202.31,431.31c9.72-10.64,25.6.95,17.18,12.68-7.6,10.58-27.67-1.18-17.18-12.68Z"/>
  <path class="st43" d="M789.99,584.99c-.6,1.28-2.44-3.62-1.98-4.99.6-1.28,2.44,3.62,1.98,4.99Z"/>
  <path class="st93" d="M210.7,434.16c5.73-1.62,5.34,5.8,1.6,6.73-3.99,1-6.24-5.42-1.6-6.73Z"/>
</svg>